<svg xmlns="http://www.w3.org/2000/svg" viewBox="0 0 324 235.2"><defs><style>.cls-1{fill:#000029;}.cls-2{fill:#88b183;}.cls-3{fill:#4e665c;}.cls-4{fill:#6c8c6f;}.cls-5{fill:#7fa57d;}.cls-6{fill:#3e5252;}.cls-7{fill:#36474d;}.cls-8{fill:#2e3b46;}.cls-9{fill:#587363;}.cls-10{fill:#4b615a;}.cls-11{fill:#a7d897;}.cls-12{fill:#c4feab;}</style></defs><title>Recurso 2</title><g id="Capa_2" data-name="Capa 2"><g id="Layer_1" data-name="Layer 1"><rect class="cls-1" width="324" height="235.2"/><polygon class="cls-2" points="152.36 155.29 162.52 155.29 202.18 55.58 192.02 55.58 152.36 155.29"/><polygon class="cls-3" points="144.99 64.55 135.83 64.55 149.71 101.46 154.39 89.53 144.99 64.55"/><polygon class="cls-4" points="165.9 64.59 175.06 64.59 161.18 101.5 156.5 89.57 165.9 64.59"/><polygon class="cls-5" points="159.93 104.26 155.44 92.32 150.76 104.26 159.93 104.26"/><path class="cls-6" d="M113.33,73A10.64,10.64,0,0,1,118,74.15h12.67a19.85,19.85,0,1,0,1.92,14.2H123a10.68,10.68,0,1,1-15.28-13.68,2,2,0,0,1,.71-.41A10.65,10.65,0,0,1,113.33,73Z"/><path class="cls-7" d="M78.7,101.78v.8h9.16V91.84A22,22,0,0,1,78.7,101.78Z"/><path class="cls-7" d="M87.87,73.61V41.34H78.7V63.68A22,22,0,0,1,87.87,73.61Z"/><path class="cls-8" d="M68,93.42a10.69,10.69,0,1,1,8.69-16.9V64.9a19.85,19.85,0,1,0,0,35.66V88.94A10.67,10.67,0,0,1,68,93.42Z"/><path class="cls-9" d="M78.7,66V99.44A19.82,19.82,0,0,0,78.7,66Z"/><path class="cls-10" d="M117.56,76.15h-8.47l-.1.06v9.1h12.87a8.9,8.9,0,0,0,.15-1.58A8.69,8.69,0,0,0,117.56,76.15Z"/><path class="cls-5" d="M131.67,76.15H120.86A10.66,10.66,0,0,1,124,83.73a10.44,10.44,0,0,1-.13,1.58h9.32V76.15Z"/><path class="cls-1" d="M109,76.15v.06l.1-.06Z"/><path class="cls-4" d="M133.67,115.32A19.76,19.76,0,0,0,123,118.45v-3.13h-9.16v59.56H123v-23a19.85,19.85,0,1,0,10.69-36.58Zm0,30.54a10.69,10.69,0,1,1,10.69-10.69A10.69,10.69,0,0,1,133.67,145.86Z"/><path class="cls-11" d="M197.36,115.32A19.85,19.85,0,1,0,208,151.9V155h9.16V133.14h-.1A19.85,19.85,0,0,0,197.36,115.32Zm0,30.54A10.69,10.69,0,1,1,208,135.17,10.69,10.69,0,0,1,197.36,145.86Z"/><polygon class="cls-12" points="240.32 135.18 237.43 142.88 227.06 115.32 217.9 115.32 232.84 155.03 225.37 174.88 234.53 174.88 242 155.03 242.02 155.03 249.49 135.18 256.95 115.32 247.79 115.32 240.32 135.18"/></g></g></svg>